# xmcd
#
# Track frame offsets: 
#        150
#        10732
#        21730
#        34780
#        46050
#        56782
#        69180
#        81935
#        92645
#        104987
#        115630
#        127902
#        141407
#
# Disc length: 2036 seconds
#
# Revision: 2
# Processed by: cddbd v1.5.2PL0 Copyright (c) Steve Scherf et al.
# Submitted via: ExactAudioCopy v1.0b1
#
DISCID=b007f20d
DTITLE=Jimmy McCracklin - The Mercury Recordings
DYEAR=1992
DGENRE=Blues
TTITLE0=The Wobble (mono)
TTITLE1=Georgia Slop (mono)
TTITLE2=Hitched (mono)
TTITLE3=No One To Love Me (mono)
TTITLE4=(I'll Be Glad When You're Dead) You Rascal You (mono)
TTITLE5=By Myself (mono)
TTITLE6=Doomed Lover (mono)
TTITLE7=With Your Love (mono)
TTITLE8=Let's Do It (The Chicken Scratch) (mono)
TTITLE9=The Bridge (mono)
TTITLE10=What's That (Part 1) (mono)
TTITLE11=What's That (Part 2) (mono)
TTITLE12=Folsom Prison Blues (mono)
EXTD=YEAR: 1992
EXTT0=
EXTT1=
EXTT2=
EXTT3=
EXTT4=
EXTT5=
EXTT6=
EXTT7=
EXTT8=
EXTT9=
EXTT10=
EXTT11=
EXTT12=
PLAYORDER=
